<?xml version="1.0" encoding="UTF-8" standalone="no"?>
<!DOCTYPE svg PUBLIC "-//W3C//DTD SVG 1.1//EN" "http://www.w3.org/Graphics/SVG/1.1/DTD/svg11.dtd">
<svg width="100%" height="100%" viewBox="0 0 26 30" version="1.1" xmlns="http://www.w3.org/2000/svg" xmlns:xlink="http://www.w3.org/1999/xlink" xml:space="preserve" xmlns:serif="http://www.serif.com/" style="fill-rule:evenodd;clip-rule:evenodd;stroke-linejoin:round;stroke-miterlimit:2;">
    <g transform="matrix(0.976805,0.214131,-0.214131,0.976805,3.60523,-2.28049)">
        <path d="M4.323,11.296C5.101,11.131 5.737,10.647 6.114,10.015C6.748,10.699 7.721,11.039 8.7,10.831C9.534,10.653 10.199,10.117 10.562,9.418C10.773,9.425 10.99,9.408 11.207,9.362C11.74,9.249 12.202,8.988 12.563,8.632C13.203,9.321 14.178,9.666 15.162,9.457C16.652,9.14 17.603,7.677 17.286,6.187C16.969,4.696 15.506,3.746 14.015,4.063C13.904,4.086 13.8,4.114 13.696,4.148L13.693,4.131C13.376,2.641 11.907,1.692 10.422,2.007C9.382,2.228 8.606,3.009 8.339,3.967C7.798,3.693 7.174,3.599 6.54,3.733C5.417,3.972 4.6,4.861 4.402,5.926C4.015,5.828 3.594,5.818 3.177,5.907C1.687,6.224 0.736,7.687 1.052,9.172C1.369,10.663 2.832,11.613 4.323,11.296Z" style="fill-rule:nonzero;"/>
    </g>
    <g transform="matrix(0.976805,0.214131,-0.214131,0.976805,3.60523,-2.28049)">
        <path d="M22.356,11.717C22.132,10.663 21.093,9.988 20.039,10.212L18.149,10.614L17.788,8.915C17.784,8.894 17.779,8.874 17.77,8.854C17.24,9.663 16.403,10.273 15.381,10.49C14.395,10.7 13.37,10.502 12.534,9.972C12.193,10.169 11.819,10.313 11.426,10.397C11.339,10.415 11.25,10.429 11.161,10.442C10.612,11.163 9.824,11.671 8.921,11.863C8.007,12.057 7.061,11.902 6.266,11.461C5.779,11.888 5.186,12.193 4.54,12.33C3.667,12.515 2.797,12.382 2.054,12.011C2.052,12.049 2.054,12.086 2.062,12.123L5.307,27.388C5.548,28.523 6.669,29.251 7.81,29.009L19.383,26.549C20.519,26.308 21.247,25.187 21.005,24.051L20.229,20.4L22.119,19.998C23.173,19.774 23.848,18.735 23.624,17.681L22.356,11.717ZM8.693,25.518C8.753,25.802 8.57,26.084 8.286,26.144C8.002,26.205 7.72,26.022 7.66,25.738L5.496,15.559C5.436,15.275 5.619,14.993 5.903,14.933C6.187,14.873 6.469,15.056 6.529,15.34L8.693,25.518ZM11.858,24.845C11.919,25.129 11.736,25.411 11.452,25.471C11.168,25.532 10.886,25.349 10.825,25.065L8.662,14.887C8.602,14.602 8.785,14.321 9.069,14.26C9.353,14.2 9.634,14.383 9.695,14.667L11.858,24.845ZM15.024,24.172C15.084,24.456 14.901,24.738 14.617,24.799C14.328,24.86 14.051,24.676 13.991,24.392L11.828,14.214C11.767,13.93 11.945,13.649 12.234,13.588C12.518,13.527 12.8,13.71 12.86,13.994L15.024,24.172ZM18.184,23.501C18.245,23.785 18.067,24.065 17.778,24.127C17.494,24.187 17.212,24.004 17.151,23.72L14.988,13.542C14.928,13.258 15.111,12.976 15.395,12.916C15.684,12.854 15.96,13.038 16.021,13.322L18.184,23.501ZM22.591,17.901C22.694,18.386 22.385,18.862 21.9,18.965L20.01,19.367L18.369,11.647L20.259,11.245C20.744,11.142 21.22,11.451 21.323,11.936L22.591,17.901Z" style="fill-rule:nonzero;"/>
    </g>
</svg>
